# xmcd
#
# Track frame offsets:
#	150
#	7042
#	13840
#	20667
#	41555
#
# Disc length: 831 seconds
#
# Revision: 1
# Processed by: cddbd v1.5PL3 Copyright (c) Steve Scherf et al.
# Submitted via: CDex 1.50Beta5
#
DISCID=37033d05
DTITLE=ハムちゃんず - ハム太郎とっとこうた
DYEAR=1900
DGENRE=
TTITLE0=ハム太郎とっとこうた
TTITLE1=ハム太郎とっとこうた つづきでちゅ!
TTITLE2=ハム太郎とっとこうた またつづきでちゅ!
TTITLE3=すてきな なつの おくりもの〜ハムハムホリデイ、いつまでも〜
TTITLE4=すてきな なつの おくりもの〜ハムハムホリデイ、いつまでも〜(オリジナル・カラオケ)
EXTD=
EXTT0=
EXTT1=
EXTT2=
EXTT3=
EXTT4=
PLAYORDER=
